<mxfile host="app.diagrams.net" modified="2021-05-13T01:42:17.253Z" agent="5.0 (Windows NT 10.0; WOW64) AppleWebKit/537.36 (KHTML, like Gecko) Chrome/88.0.4324.150 Safari/537.36" etag="-yXPIipLaQKNd5_CR8d7" version="14.6.12" type="github">
  <diagram id="JblWaZ8aB8iVZCQLwsj8" name="Page-1">
    <mxGraphModel dx="2249" dy="762" grid="1" gridSize="10" guides="1" tooltips="1" connect="1" arrows="1" fold="1" page="1" pageScale="1" pageWidth="827" pageHeight="1169" math="0" shadow="0">
      <root>
        <mxCell id="0" />
        <mxCell id="1" parent="0" />
        <mxCell id="si1Oo1tkvW6U5wxhtszM-8" style="edgeStyle=orthogonalEdgeStyle;rounded=0;orthogonalLoop=1;jettySize=auto;html=1;entryX=0.5;entryY=0;entryDx=0;entryDy=0;" edge="1" parent="1" source="si1Oo1tkvW6U5wxhtszM-1" target="si1Oo1tkvW6U5wxhtszM-6">
          <mxGeometry relative="1" as="geometry" />
        </mxCell>
        <mxCell id="si1Oo1tkvW6U5wxhtszM-1" value="tenant B" style="shape=umlActor;verticalLabelPosition=bottom;verticalAlign=top;html=1;outlineConnect=0;" vertex="1" parent="1">
          <mxGeometry x="280" y="40" width="40" height="60" as="geometry" />
        </mxCell>
        <mxCell id="si1Oo1tkvW6U5wxhtszM-9" style="edgeStyle=orthogonalEdgeStyle;rounded=0;orthogonalLoop=1;jettySize=auto;html=1;entryX=0.25;entryY=0;entryDx=0;entryDy=0;" edge="1" parent="1" source="si1Oo1tkvW6U5wxhtszM-2" target="si1Oo1tkvW6U5wxhtszM-6">
          <mxGeometry relative="1" as="geometry" />
        </mxCell>
        <mxCell id="si1Oo1tkvW6U5wxhtszM-2" value="tenant A" style="shape=umlActor;verticalLabelPosition=bottom;verticalAlign=top;html=1;outlineConnect=0;" vertex="1" parent="1">
          <mxGeometry x="170" y="40" width="30" height="60" as="geometry" />
        </mxCell>
        <mxCell id="si1Oo1tkvW6U5wxhtszM-10" style="edgeStyle=orthogonalEdgeStyle;rounded=0;orthogonalLoop=1;jettySize=auto;html=1;entryX=0.75;entryY=0;entryDx=0;entryDy=0;" edge="1" parent="1" source="si1Oo1tkvW6U5wxhtszM-3" target="si1Oo1tkvW6U5wxhtszM-6">
          <mxGeometry relative="1" as="geometry" />
        </mxCell>
        <mxCell id="si1Oo1tkvW6U5wxhtszM-3" value="tenant C" style="shape=umlActor;verticalLabelPosition=bottom;verticalAlign=top;html=1;outlineConnect=0;" vertex="1" parent="1">
          <mxGeometry x="399" y="40" width="30" height="60" as="geometry" />
        </mxCell>
        <mxCell id="si1Oo1tkvW6U5wxhtszM-5" value="租户和集群关系&lt;br&gt;tenantA:集群A&lt;br&gt;tenantB &amp;amp; tenantC:集群B" style="rounded=0;whiteSpace=wrap;html=1;" vertex="1" parent="1">
          <mxGeometry x="500" y="50" width="180" height="60" as="geometry" />
        </mxCell>
        <mxCell id="si1Oo1tkvW6U5wxhtszM-17" style="edgeStyle=orthogonalEdgeStyle;rounded=0;orthogonalLoop=1;jettySize=auto;html=1;exitX=0.25;exitY=1;exitDx=0;exitDy=0;" edge="1" parent="1" source="si1Oo1tkvW6U5wxhtszM-6" target="si1Oo1tkvW6U5wxhtszM-14">
          <mxGeometry relative="1" as="geometry" />
        </mxCell>
        <mxCell id="si1Oo1tkvW6U5wxhtszM-18" style="edgeStyle=orthogonalEdgeStyle;rounded=0;orthogonalLoop=1;jettySize=auto;html=1;exitX=0.75;exitY=1;exitDx=0;exitDy=0;entryX=0.5;entryY=0;entryDx=0;entryDy=0;" edge="1" parent="1" source="si1Oo1tkvW6U5wxhtszM-6" target="si1Oo1tkvW6U5wxhtszM-15">
          <mxGeometry relative="1" as="geometry" />
        </mxCell>
        <mxCell id="si1Oo1tkvW6U5wxhtszM-6" value="aliyun ALB" style="rounded=0;whiteSpace=wrap;html=1;" vertex="1" parent="1">
          <mxGeometry x="160" y="190" width="280" height="60" as="geometry" />
        </mxCell>
        <mxCell id="si1Oo1tkvW6U5wxhtszM-11" value="https://ip/a/index" style="text;html=1;align=center;verticalAlign=middle;resizable=0;points=[];autosize=1;strokeColor=none;" vertex="1" parent="1">
          <mxGeometry x="80" y="130" width="100" height="20" as="geometry" />
        </mxCell>
        <mxCell id="si1Oo1tkvW6U5wxhtszM-12" value="https://ip/b/index" style="text;html=1;align=center;verticalAlign=middle;resizable=0;points=[];autosize=1;strokeColor=none;" vertex="1" parent="1">
          <mxGeometry x="220" y="130" width="100" height="20" as="geometry" />
        </mxCell>
        <mxCell id="si1Oo1tkvW6U5wxhtszM-13" value="https://ip/b/index" style="text;html=1;align=center;verticalAlign=middle;resizable=0;points=[];autosize=1;strokeColor=none;" vertex="1" parent="1">
          <mxGeometry x="414" y="130" width="100" height="20" as="geometry" />
        </mxCell>
        <mxCell id="si1Oo1tkvW6U5wxhtszM-27" style="edgeStyle=orthogonalEdgeStyle;rounded=0;orthogonalLoop=1;jettySize=auto;html=1;exitX=0.5;exitY=1;exitDx=0;exitDy=0;entryX=0.5;entryY=0;entryDx=0;entryDy=0;" edge="1" parent="1" source="si1Oo1tkvW6U5wxhtszM-14" target="si1Oo1tkvW6U5wxhtszM-25">
          <mxGeometry relative="1" as="geometry" />
        </mxCell>
        <mxCell id="si1Oo1tkvW6U5wxhtszM-14" value="nginx-A" style="rounded=0;whiteSpace=wrap;html=1;" vertex="1" parent="1">
          <mxGeometry x="160" y="300" width="120" height="60" as="geometry" />
        </mxCell>
        <mxCell id="si1Oo1tkvW6U5wxhtszM-28" style="edgeStyle=orthogonalEdgeStyle;rounded=0;orthogonalLoop=1;jettySize=auto;html=1;exitX=0.5;exitY=1;exitDx=0;exitDy=0;entryX=0.5;entryY=0;entryDx=0;entryDy=0;" edge="1" parent="1" source="si1Oo1tkvW6U5wxhtszM-15" target="si1Oo1tkvW6U5wxhtszM-26">
          <mxGeometry relative="1" as="geometry" />
        </mxCell>
        <mxCell id="si1Oo1tkvW6U5wxhtszM-15" value="nginx-B" style="rounded=0;whiteSpace=wrap;html=1;" vertex="1" parent="1">
          <mxGeometry x="320" y="300" width="120" height="60" as="geometry" />
        </mxCell>
        <mxCell id="si1Oo1tkvW6U5wxhtszM-20" value="路由规则&lt;br&gt;*/a/* -&amp;gt; nginx-A&amp;nbsp;&lt;br&gt;*/b/* -&amp;gt; nginx-B" style="rounded=0;whiteSpace=wrap;html=1;" vertex="1" parent="1">
          <mxGeometry x="500" y="190" width="180" height="60" as="geometry" />
        </mxCell>
        <mxCell id="si1Oo1tkvW6U5wxhtszM-21" value="https://ip/index(租户A)" style="text;html=1;align=center;verticalAlign=middle;resizable=0;points=[];autosize=1;strokeColor=none;" vertex="1" parent="1">
          <mxGeometry x="90" y="270" width="130" height="20" as="geometry" />
        </mxCell>
        <mxCell id="si1Oo1tkvW6U5wxhtszM-22" value="https://ip/index（租户B&amp;amp;C）" style="text;html=1;align=center;verticalAlign=middle;resizable=0;points=[];autosize=1;strokeColor=none;" vertex="1" parent="1">
          <mxGeometry x="379" y="270" width="170" height="20" as="geometry" />
        </mxCell>
        <mxCell id="si1Oo1tkvW6U5wxhtszM-23" value="URL改写规则&lt;br&gt;*/a/* -&amp;gt; */*&amp;nbsp;&lt;br&gt;*/b/* -&amp;gt; */*" style="rounded=0;whiteSpace=wrap;html=1;" vertex="1" parent="1">
          <mxGeometry x="710" y="190" width="180" height="60" as="geometry" />
        </mxCell>
        <mxCell id="si1Oo1tkvW6U5wxhtszM-24" value="路由规则&lt;br&gt;* -&amp;gt; gateway" style="rounded=0;whiteSpace=wrap;html=1;" vertex="1" parent="1">
          <mxGeometry x="500" y="300" width="180" height="60" as="geometry" />
        </mxCell>
        <mxCell id="si1Oo1tkvW6U5wxhtszM-56" style="edgeStyle=orthogonalEdgeStyle;rounded=0;orthogonalLoop=1;jettySize=auto;html=1;exitX=0.5;exitY=1;exitDx=0;exitDy=0;entryX=0.5;entryY=0;entryDx=0;entryDy=0;" edge="1" parent="1" source="si1Oo1tkvW6U5wxhtszM-25" target="si1Oo1tkvW6U5wxhtszM-45">
          <mxGeometry relative="1" as="geometry" />
        </mxCell>
        <mxCell id="si1Oo1tkvW6U5wxhtszM-25" value="gateway-A" style="rounded=0;whiteSpace=wrap;html=1;" vertex="1" parent="1">
          <mxGeometry x="160" y="400" width="120" height="60" as="geometry" />
        </mxCell>
        <mxCell id="si1Oo1tkvW6U5wxhtszM-57" style="edgeStyle=orthogonalEdgeStyle;rounded=0;orthogonalLoop=1;jettySize=auto;html=1;exitX=0.5;exitY=1;exitDx=0;exitDy=0;entryX=0.5;entryY=0;entryDx=0;entryDy=0;" edge="1" parent="1" source="si1Oo1tkvW6U5wxhtszM-26" target="si1Oo1tkvW6U5wxhtszM-51">
          <mxGeometry relative="1" as="geometry" />
        </mxCell>
        <mxCell id="si1Oo1tkvW6U5wxhtszM-26" value="gateway-B" style="rounded=0;whiteSpace=wrap;html=1;" vertex="1" parent="1">
          <mxGeometry x="320" y="400" width="120" height="60" as="geometry" />
        </mxCell>
        <mxCell id="si1Oo1tkvW6U5wxhtszM-29" value="https://ip/index" style="text;html=1;align=center;verticalAlign=middle;resizable=0;points=[];autosize=1;strokeColor=none;" vertex="1" parent="1">
          <mxGeometry x="110" y="370" width="90" height="20" as="geometry" />
        </mxCell>
        <mxCell id="si1Oo1tkvW6U5wxhtszM-30" value="https://ip/index" style="text;html=1;align=center;verticalAlign=middle;resizable=0;points=[];autosize=1;strokeColor=none;" vertex="1" parent="1">
          <mxGeometry x="379" y="370" width="90" height="20" as="geometry" />
        </mxCell>
        <mxCell id="si1Oo1tkvW6U5wxhtszM-31" value="nacos-A" style="rounded=0;whiteSpace=wrap;html=1;" vertex="1" parent="1">
          <mxGeometry x="-60" y="400" width="120" height="60" as="geometry" />
        </mxCell>
        <mxCell id="si1Oo1tkvW6U5wxhtszM-35" value="" style="endArrow=classic;startArrow=classic;html=1;entryX=0;entryY=0.5;entryDx=0;entryDy=0;exitX=1;exitY=0.5;exitDx=0;exitDy=0;" edge="1" parent="1" source="si1Oo1tkvW6U5wxhtszM-31">
          <mxGeometry width="50" height="50" relative="1" as="geometry">
            <mxPoint x="100" y="429.5" as="sourcePoint" />
            <mxPoint x="160" y="429.5" as="targetPoint" />
          </mxGeometry>
        </mxCell>
        <mxCell id="si1Oo1tkvW6U5wxhtszM-38" value="拉取应用服务器ip" style="text;html=1;align=center;verticalAlign=middle;resizable=0;points=[];autosize=1;strokeColor=none;" vertex="1" parent="1">
          <mxGeometry x="60" y="410" width="110" height="20" as="geometry" />
        </mxCell>
        <mxCell id="si1Oo1tkvW6U5wxhtszM-41" value="路由规则&lt;br&gt;*/index -&amp;gt;&amp;nbsp; 应用A&lt;br&gt;*/user -&amp;gt; 应用B" style="rounded=0;whiteSpace=wrap;html=1;" vertex="1" parent="1">
          <mxGeometry x="500" y="400" width="180" height="60" as="geometry" />
        </mxCell>
        <mxCell id="si1Oo1tkvW6U5wxhtszM-44" value="" style="rounded=0;whiteSpace=wrap;html=1;" vertex="1" parent="1">
          <mxGeometry x="160" y="520" width="120" height="60" as="geometry" />
        </mxCell>
        <mxCell id="si1Oo1tkvW6U5wxhtszM-45" value="应用A" style="rounded=0;whiteSpace=wrap;html=1;" vertex="1" parent="1">
          <mxGeometry x="170" y="520" width="40" height="30" as="geometry" />
        </mxCell>
        <mxCell id="si1Oo1tkvW6U5wxhtszM-46" value="应用B" style="rounded=0;whiteSpace=wrap;html=1;" vertex="1" parent="1">
          <mxGeometry x="230" y="520" width="40" height="30" as="geometry" />
        </mxCell>
        <mxCell id="si1Oo1tkvW6U5wxhtszM-50" value="" style="rounded=0;whiteSpace=wrap;html=1;" vertex="1" parent="1">
          <mxGeometry x="320" y="520" width="120" height="60" as="geometry" />
        </mxCell>
        <mxCell id="si1Oo1tkvW6U5wxhtszM-51" value="应用A" style="rounded=0;whiteSpace=wrap;html=1;" vertex="1" parent="1">
          <mxGeometry x="330" y="520" width="40" height="30" as="geometry" />
        </mxCell>
        <mxCell id="si1Oo1tkvW6U5wxhtszM-52" value="应用B" style="rounded=0;whiteSpace=wrap;html=1;" vertex="1" parent="1">
          <mxGeometry x="379" y="520" width="40" height="30" as="geometry" />
        </mxCell>
        <mxCell id="si1Oo1tkvW6U5wxhtszM-58" value="https://ip/index" style="text;html=1;align=center;verticalAlign=middle;resizable=0;points=[];autosize=1;strokeColor=none;" vertex="1" parent="1">
          <mxGeometry x="100" y="480" width="90" height="20" as="geometry" />
        </mxCell>
        <mxCell id="si1Oo1tkvW6U5wxhtszM-61" value="https://ip/index" style="text;html=1;align=center;verticalAlign=middle;resizable=0;points=[];autosize=1;strokeColor=none;" vertex="1" parent="1">
          <mxGeometry x="379" y="480" width="90" height="20" as="geometry" />
        </mxCell>
      </root>
    </mxGraphModel>
  </diagram>
</mxfile>
